<svg width="335" height="335" xmlns="http://www.w3.org/2000/svg" xmlns:xlink="http://www.w3.org/1999/xlink" xml:space="preserve" overflow="hidden"><g transform="translate(-728 -852)"><g><g><g><g><path d="M1024.97 1000.81 1021.19 1000.81 1021.19 980.187C1021.18 970.699 1013.49 963.011 1004 963L1000.56 963C996.831 963.013 993.208 964.252 990.25 966.527L990.25 949.25C990.239 939.762 982.55 932.074 973.063 932.062L966.188 932.062C956.7 932.074 949.011 939.762 949 949.25L949 997.375 839 997.375 839 949.25C838.989 939.762 831.3 932.074 821.813 932.062L814.938 932.062C805.45 932.074 797.761 939.762 797.75 949.25L797.75 966.527C794.792 964.252 791.169 963.013 787.438 963L784 963C774.512 963.011 766.824 970.699 766.813 980.187L766.813 1000.81 763.031 1000.81C753.733 1000.82 746.197 1008.36 746.188 1017.66L746.188 1018.34C746.197 1027.64 753.733 1035.18 763.031 1035.19L766.813 1035.19 766.813 1055.81C766.824 1065.3 774.512 1072.99 784 1073L787.438 1073C791.169 1072.99 794.792 1071.75 797.75 1069.47L797.75 1086.75C797.761 1096.24 805.45 1103.93 814.938 1103.94L821.813 1103.94C831.3 1103.93 838.989 1096.24 839 1086.75L839 1038.62 949 1038.62 949 1086.75C949.011 1096.24 956.7 1103.93 966.188 1103.94L973.063 1103.94C982.55 1103.93 990.239 1096.24 990.25 1086.75L990.25 1069.47C993.208 1071.75 996.831 1072.99 1000.56 1073L1004 1073C1013.49 1072.99 1021.18 1065.3 1021.19 1055.81L1021.19 1035.19 1024.97 1035.19C1034.27 1035.18 1041.8 1027.64 1041.81 1018.34L1041.81 1017.66C1041.8 1008.36 1034.27 1000.82 1024.97 1000.81ZM763.031 1028.31C757.526 1028.31 753.063 1023.85 753.063 1018.34L753.063 1017.66C753.063 1012.15 757.526 1007.69 763.031 1007.69L766.813 1007.69 766.813 1028.31ZM787.438 1066.12 784 1066.12C778.305 1066.12 773.688 1061.51 773.688 1055.81L773.688 980.187C773.688 974.492 778.305 969.875 784 969.875L787.438 969.875C793.133 969.875 797.75 974.492 797.75 980.187L797.75 1055.81C797.75 1061.51 793.133 1066.12 787.438 1066.12ZM832.125 1086.75C832.125 1092.45 827.508 1097.06 821.813 1097.06L814.938 1097.06C809.242 1097.06 804.625 1092.45 804.625 1086.75L804.625 949.25C804.625 943.554 809.242 938.937 814.938 938.937L821.813 938.937C827.508 938.937 832.125 943.554 832.125 949.25L832.125 1086.75ZM839 1031.75 839 1004.25 949 1004.25 949 1031.75ZM983.375 1086.75C983.375 1092.45 978.758 1097.06 973.063 1097.06L966.188 1097.06C960.492 1097.06 955.875 1092.45 955.875 1086.75L955.875 949.25C955.875 943.554 960.492 938.937 966.188 938.937L973.063 938.937C978.758 938.937 983.375 943.554 983.375 949.25L983.375 1086.75ZM1014.31 1055.81C1014.31 1061.51 1009.7 1066.12 1004 1066.12L1000.56 1066.12C994.867 1066.12 990.25 1061.51 990.25 1055.81L990.25 980.187C990.25 974.492 994.867 969.875 1000.56 969.875L1004 969.875C1009.7 969.875 1014.31 974.492 1014.31 980.187L1014.31 1055.81ZM1034.94 1018.34C1034.94 1023.85 1030.47 1028.31 1024.97 1028.31L1021.19 1028.31 1021.19 1007.69 1024.97 1007.69C1030.47 1007.69 1034.94 1012.15 1034.94 1017.66Z" fill="#4554BA" fill-rule="nonzero" fill-opacity="1"/></g></g></g></g></g></svg>