<svg width="335" height="335" xmlns="http://www.w3.org/2000/svg" xmlns:xlink="http://www.w3.org/1999/xlink" xml:space="preserve" overflow="hidden"><g transform="translate(-1654 -852)"><g><g><g><g><path d="M1723.31 973.312 1723.31 1062.69 1787.25 1062.69 1874.56 1135.22 1874.56 900.781 1787.25 973.312 1723.31 973.312ZM1867.69 915.219 1867.69 1120.44 1790 1055.81 1730.19 1055.81 1730.19 980.187 1790 980.187 1867.69 915.219Z" fill="#4554BA" fill-rule="nonzero" fill-opacity="1"/><path d="M1904.12 1051.34C1922.69 1035.19 1924.41 1007 1907.91 988.437 1906.53 987.062 1905.5 985.687 1904.12 984.656L1899.66 989.812C1915.12 1003.56 1916.84 1027.28 1903.09 1043.09 1902.06 1044.12 1901.03 1045.5 1899.66 1046.53L1904.12 1051.34Z" fill="#4554BA" fill-rule="nonzero" fill-opacity="1"/></g></g></g></g></g></svg>