<svg width="335" height="335" xmlns="http://www.w3.org/2000/svg" xmlns:xlink="http://www.w3.org/1999/xlink" xml:space="preserve" overflow="hidden"><g transform="translate(-3185 -852)"><g><g><g><g><path d="M3210.06 1000.81 3216.94 1000.81 3216.94 1035.19 3210.06 1035.19Z" fill="#4554BA" fill-rule="nonzero" fill-opacity="1"/><path d="M3244.44 987.062 3251.31 987.062 3251.31 1048.94 3244.44 1048.94Z" fill="#4554BA" fill-rule="nonzero" fill-opacity="1"/><path d="M3278.81 956.125 3285.69 956.125 3285.69 1079.87 3278.81 1079.87Z" fill="#4554BA" fill-rule="nonzero" fill-opacity="1"/><path d="M3313.19 921.75 3320.06 921.75 3320.06 1114.25 3313.19 1114.25Z" fill="#4554BA" fill-rule="nonzero" fill-opacity="1"/><path d="M3347.56 969.875 3354.44 969.875 3354.44 1066.12 3347.56 1066.12Z" fill="#4554BA" fill-rule="nonzero" fill-opacity="1"/><path d="M3381.94 987.062 3388.81 987.062 3388.81 1048.94 3381.94 1048.94Z" fill="#4554BA" fill-rule="nonzero" fill-opacity="1"/><path d="M3416.31 1000.81 3423.19 1000.81 3423.19 1035.19 3416.31 1035.19Z" fill="#4554BA" fill-rule="nonzero" fill-opacity="1"/><path d="M3450.69 987.062 3457.56 987.062 3457.56 1048.94 3450.69 1048.94Z" fill="#4554BA" fill-rule="nonzero" fill-opacity="1"/><path d="M3485.06 1000.81 3491.94 1000.81 3491.94 1035.19 3485.06 1035.19Z" fill="#4554BA" fill-rule="nonzero" fill-opacity="1"/></g></g></g></g></g></svg>