<svg width="334" height="335" xmlns="http://www.w3.org/2000/svg" xmlns:xlink="http://www.w3.org/1999/xlink" xml:space="preserve" overflow="hidden"><g transform="translate(-2420 -852)"><g><g><g><g><path d="M2532.34 976.75C2507.59 997.375 2494.19 1016.28 2490.06 1026.25 2467.03 1081.94 2500.72 1135.91 2525.12 1149.31L2534.06 1154.12 2529.94 1144.84C2521 1124.56 2511.38 1086.06 2541.97 1047.91 2540.25 1064.06 2540.25 1092.25 2558.47 1114.25 2582.53 1143.81 2582.88 1165.81 2582.88 1166.16L2582.88 1169.59 2586.31 1169.59C2628.25 1169.59 2666.41 1144.16 2682.22 1105.31 2694.25 1081.94 2696.31 1044.12 2678.78 1020.75L2668.81 1007.34 2672.94 1023.5C2675.34 1034.84 2671.56 1046.19 2662.62 1053.75 2654.38 1061.31 2642.69 1063.37 2632.38 1058.91 2623.44 1055.81 2616.56 1048.94 2613.81 1040.34 2610.72 1030.03 2612.78 1019.03 2619.31 1010.78 2634.09 990.5 2638.56 964.031 2631.69 937.562 2623.44 906.281 2601.09 880.156 2571.19 867.094L2562.25 863.312 2566.72 871.906C2592.84 921.062 2546.78 964.719 2532.34 976.75ZM2580.12 879.469C2602.12 892.875 2618.28 914.187 2624.81 939.281 2631.34 963.687 2627.22 988.094 2613.12 1006.66 2605.56 1016.97 2603.16 1030.03 2606.94 1042.41 2610.38 1053.06 2618.97 1061.66 2629.62 1065.44 2642.34 1070.59 2656.78 1068.19 2666.75 1058.91 2673.62 1053.06 2678.09 1045.16 2679.47 1036.56 2687.72 1057.19 2684.62 1084.69 2675.69 1102.22 2661.25 1137.62 2627.56 1161.34 2589.41 1162.72 2588.38 1154.81 2584.25 1134.87 2563.62 1110.12 2539.91 1081.25 2550.22 1039.31 2550.56 1037.59L2553.66 1025.22 2544.72 1034.5C2507.25 1073.34 2512.06 1114.25 2519.28 1137.28 2498.66 1118.72 2477.34 1074.72 2495.91 1029.34 2500.03 1019.37 2514.12 1000.81 2536.12 982.594 2566.38 957.5 2591.47 917.969 2576.34 878.094 2577.03 877.406 2579.09 878.781 2580.12 879.469Z" fill="#4554BA" fill-rule="nonzero" fill-opacity="1"/></g></g></g></g></g></svg>